<svg xmlns="http://www.w3.org/2000/svg" xmlns:xlink="http://www.w3.org/1999/xlink" width="500" zoomAndPan="magnify" viewBox="0 0 375 374.999991" height="500" preserveAspectRatio="xMidYMid meet" version="1.0"><path fill="#e8eef1" d="M 356.46875 143.898438 L 331.40625 137.632812 L 324.527344 121.007812 L 337.824219 98.84375 C 338.523438 97.683594 339.121094 96.472656 339.617188 95.214844 C 340.113281 93.953125 340.503906 92.664062 340.785156 91.335938 C 341.066406 90.011719 341.234375 88.675781 341.296875 87.320312 C 341.355469 85.96875 341.300781 84.621094 341.136719 83.277344 C 340.96875 81.933594 340.695312 80.609375 340.308594 79.3125 C 339.921875 78.015625 339.433594 76.757812 338.839844 75.539062 C 338.246094 74.324219 337.554688 73.164062 336.765625 72.0625 C 335.980469 70.960938 335.105469 69.933594 334.148438 68.976562 L 306.03125 40.863281 C 305.078125 39.902344 304.046875 39.03125 302.945312 38.242188 C 301.84375 37.453125 300.683594 36.761719 299.46875 36.167969 C 298.253906 35.574219 296.996094 35.082031 295.695312 34.695312 C 294.398438 34.3125 293.078125 34.035156 291.730469 33.871094 C 290.386719 33.707031 289.039062 33.652344 287.6875 33.710938 C 286.332031 33.769531 284.996094 33.941406 283.667969 34.222656 C 282.34375 34.503906 281.050781 34.894531 279.792969 35.390625 C 278.53125 35.890625 277.324219 36.488281 276.164062 37.1875 L 254 50.480469 L 237.375 43.59375 L 231.117188 18.515625 C 230.789062 17.203125 230.355469 15.925781 229.8125 14.683594 C 229.273438 13.441406 228.632812 12.253906 227.894531 11.117188 C 227.152344 9.980469 226.328125 8.914062 225.410156 7.917969 C 224.492188 6.917969 223.5 6.003906 222.433594 5.171875 C 221.363281 4.335938 220.234375 3.597656 219.042969 2.953125 C 217.851562 2.308594 216.617188 1.765625 215.335938 1.324219 C 214.054688 0.886719 212.746094 0.554688 211.410156 0.332031 C 210.070312 0.109375 208.726562 0 207.371094 0 L 167.628906 0 C 166.273438 0 164.929688 0.109375 163.59375 0.332031 C 162.257812 0.554688 160.949219 0.886719 159.667969 1.328125 C 158.386719 1.769531 157.148438 2.3125 155.957031 2.957031 C 154.769531 3.601562 153.636719 4.34375 152.570312 5.175781 C 151.503906 6.007812 150.511719 6.925781 149.59375 7.921875 C 148.679688 8.921875 147.851562 9.988281 147.113281 11.125 C 146.375 12.257812 145.734375 13.449219 145.195312 14.691406 C 144.652344 15.933594 144.21875 17.210938 143.890625 18.523438 L 137.632812 43.59375 L 121.007812 50.480469 L 98.863281 37.1875 C 97.699219 36.488281 96.488281 35.894531 95.230469 35.398438 C 93.96875 34.902344 92.675781 34.511719 91.351562 34.230469 C 90.023438 33.949219 88.6875 33.78125 87.332031 33.71875 C 85.980469 33.660156 84.628906 33.714844 83.285156 33.878906 C 81.941406 34.046875 80.621094 34.320312 79.320312 34.707031 C 78.023438 35.089844 76.765625 35.582031 75.546875 36.175781 C 74.328125 36.769531 73.167969 37.460938 72.066406 38.246094 C 70.964844 39.03125 69.933594 39.90625 68.976562 40.863281 L 40.855469 68.976562 C 39.898438 69.933594 39.023438 70.960938 38.238281 72.0625 C 37.449219 73.164062 36.757812 74.324219 36.164062 75.542969 C 35.570312 76.757812 35.078125 78.015625 34.695312 79.316406 C 34.308594 80.613281 34.03125 81.933594 33.867188 83.28125 C 33.703125 84.625 33.648438 85.972656 33.707031 87.324219 C 33.765625 88.679688 33.933594 90.019531 34.214844 91.34375 C 34.496094 92.667969 34.886719 93.960938 35.382812 95.222656 C 35.878906 96.480469 36.476562 97.691406 37.175781 98.851562 L 50.46875 121.007812 L 43.59375 137.632812 L 18.53125 143.898438 C 17.21875 144.222656 15.941406 144.65625 14.699219 145.195312 C 13.453125 145.734375 12.265625 146.375 11.128906 147.113281 C 9.992188 147.847656 8.925781 148.675781 7.925781 149.589844 C 6.925781 150.507812 6.011719 151.496094 5.175781 152.566406 C 4.34375 153.632812 3.601562 154.761719 2.957031 155.953125 C 2.3125 157.144531 1.769531 158.378906 1.328125 159.660156 C 0.886719 160.941406 0.554688 162.25 0.332031 163.585938 C 0.109375 164.921875 0 166.265625 0 167.621094 L 0 207.378906 C 0 208.734375 0.109375 210.078125 0.332031 211.414062 C 0.554688 212.75 0.886719 214.058594 1.328125 215.339844 C 1.769531 216.621094 2.3125 217.855469 2.957031 219.046875 C 3.601562 220.238281 4.34375 221.367188 5.175781 222.433594 C 6.011719 223.503906 6.925781 224.492188 7.925781 225.410156 C 8.925781 226.324219 9.992188 227.148438 11.128906 227.886719 C 12.265625 228.625 13.453125 229.265625 14.699219 229.804688 C 15.941406 230.34375 17.21875 230.777344 18.53125 231.101562 L 43.59375 237.367188 L 50.472656 253.992188 L 37.175781 276.15625 C 36.476562 277.316406 35.878906 278.527344 35.382812 279.785156 C 34.886719 281.046875 34.496094 282.335938 34.214844 283.660156 C 33.933594 284.988281 33.765625 286.324219 33.703125 287.679688 C 33.644531 289.03125 33.699219 290.378906 33.863281 291.722656 C 34.03125 293.066406 34.304688 294.386719 34.691406 295.6875 C 35.078125 296.984375 35.566406 298.242188 36.160156 299.460938 C 36.753906 300.675781 37.445312 301.835938 38.234375 302.9375 C 39.019531 304.039062 39.894531 305.066406 40.851562 306.023438 L 68.96875 334.136719 C 69.925781 335.097656 70.953125 335.972656 72.054688 336.761719 C 73.15625 337.550781 74.316406 338.242188 75.53125 338.835938 C 76.75 339.433594 78.007812 339.925781 79.304688 340.308594 C 80.605469 340.695312 81.925781 340.972656 83.269531 341.136719 C 84.613281 341.300781 85.964844 341.355469 87.316406 341.296875 C 88.671875 341.238281 90.007812 341.066406 91.335938 340.78125 C 92.660156 340.5 93.953125 340.109375 95.210938 339.609375 C 96.472656 339.113281 97.679688 338.511719 98.839844 337.8125 L 121.003906 324.519531 L 137.625 331.40625 L 143.882812 356.484375 C 144.214844 357.796875 144.648438 359.074219 145.191406 360.316406 C 145.730469 361.558594 146.371094 362.746094 147.109375 363.882812 C 147.847656 365.019531 148.675781 366.085938 149.59375 367.082031 C 150.507812 368.082031 151.5 368.996094 152.570312 369.828125 C 153.636719 370.664062 154.765625 371.402344 155.957031 372.046875 C 157.148438 372.691406 158.386719 373.234375 159.667969 373.675781 C 160.949219 374.113281 162.257812 374.445312 163.59375 374.667969 C 164.929688 374.890625 166.273438 375 167.628906 375 L 207.371094 375 C 208.726562 375 210.070312 374.890625 211.40625 374.667969 C 212.746094 374.445312 214.054688 374.113281 215.335938 373.671875 C 216.613281 373.230469 217.851562 372.6875 219.042969 372.042969 C 220.234375 371.398438 221.363281 370.65625 222.429688 369.824219 C 223.5 368.992188 224.488281 368.074219 225.40625 367.078125 C 226.320312 366.078125 227.148438 365.011719 227.886719 363.875 C 228.625 362.738281 229.265625 361.550781 229.804688 360.308594 C 230.347656 359.066406 230.78125 357.789062 231.109375 356.476562 L 237.367188 331.40625 L 253.992188 324.519531 L 276.136719 337.8125 C 277.296875 338.515625 278.507812 339.113281 279.769531 339.613281 C 281.03125 340.113281 282.324219 340.503906 283.648438 340.785156 C 284.972656 341.070312 286.3125 341.242188 287.667969 341.300781 C 289.023438 341.359375 290.371094 341.308594 291.71875 341.140625 C 293.0625 340.976562 294.386719 340.703125 295.683594 340.316406 C 296.984375 339.929688 298.242188 339.4375 299.460938 338.839844 C 300.675781 338.246094 301.835938 337.550781 302.9375 336.761719 C 304.039062 335.972656 305.070312 335.097656 306.023438 334.136719 L 334.144531 306.03125 C 335.101562 305.074219 335.976562 304.046875 336.761719 302.945312 C 337.550781 301.839844 338.242188 300.683594 338.839844 299.464844 C 339.433594 298.246094 339.921875 296.988281 340.308594 295.691406 C 340.695312 294.390625 340.96875 293.070312 341.136719 291.722656 C 341.300781 290.378906 341.355469 289.03125 341.296875 287.675781 C 341.238281 286.324219 341.066406 284.984375 340.785156 283.660156 C 340.503906 282.332031 340.113281 281.039062 339.617188 279.78125 C 339.121094 278.519531 338.523438 277.308594 337.824219 276.148438 L 324.53125 253.992188 L 331.410156 237.367188 L 356.472656 231.101562 C 357.785156 230.777344 359.066406 230.34375 360.308594 229.800781 C 361.550781 229.261719 362.738281 228.625 363.875 227.886719 C 365.011719 227.148438 366.078125 226.324219 367.078125 225.40625 C 368.074219 224.492188 368.992188 223.5 369.824219 222.433594 C 370.660156 221.367188 371.398438 220.238281 372.042969 219.046875 C 372.691406 217.855469 373.234375 216.621094 373.671875 215.339844 C 374.113281 214.058594 374.445312 212.75 374.667969 211.414062 C 374.890625 210.078125 375 208.734375 375 207.378906 L 375 167.621094 C 375 166.265625 374.890625 164.921875 374.667969 163.585938 C 374.445312 162.25 374.113281 160.941406 373.671875 159.660156 C 373.230469 158.378906 372.6875 157.144531 372.042969 155.953125 C 371.398438 154.761719 370.65625 153.632812 369.824219 152.566406 C 368.988281 151.496094 368.074219 150.507812 367.074219 149.589844 C 366.074219 148.675781 365.007812 147.847656 363.871094 147.113281 C 362.734375 146.375 361.546875 145.734375 360.300781 145.195312 C 359.058594 144.65625 357.78125 144.222656 356.46875 143.898438 Z M 358.695312 207.378906 C 358.695312 208.289062 358.546875 209.171875 358.253906 210.03125 C 357.957031 210.894531 357.53125 211.683594 356.96875 212.398438 C 356.410156 213.117188 355.75 213.722656 354.984375 214.21875 C 354.222656 214.714844 353.402344 215.070312 352.519531 215.292969 L 323.476562 222.554688 C 322.222656 222.863281 321.109375 223.441406 320.128906 224.285156 C 319.152344 225.128906 318.414062 226.144531 317.921875 227.339844 L 307.890625 251.546875 C 307.398438 252.742188 307.199219 253.984375 307.296875 255.269531 C 307.390625 256.558594 307.769531 257.757812 308.433594 258.867188 L 323.84375 284.53125 C 324.3125 285.3125 324.644531 286.148438 324.832031 287.035156 C 325.019531 287.925781 325.058594 288.824219 324.949219 289.726562 C 324.835938 290.628906 324.582031 291.488281 324.183594 292.308594 C 323.785156 293.125 323.261719 293.855469 322.617188 294.5 L 294.5 322.609375 C 293.859375 323.253906 293.128906 323.777344 292.3125 324.175781 C 291.492188 324.578125 290.632812 324.832031 289.730469 324.945312 C 288.824219 325.054688 287.929688 325.015625 287.039062 324.828125 C 286.148438 324.636719 285.3125 324.304688 284.535156 323.835938 L 258.847656 308.429688 C 257.742188 307.761719 256.546875 307.378906 255.257812 307.285156 C 253.96875 307.191406 252.730469 307.390625 251.539062 307.886719 L 227.339844 317.910156 C 226.144531 318.40625 225.125 319.144531 224.28125 320.121094 C 223.4375 321.101562 222.859375 322.214844 222.542969 323.46875 L 215.285156 352.519531 C 215.066406 353.402344 214.707031 354.222656 214.210938 354.988281 C 213.71875 355.75 213.109375 356.414062 212.394531 356.972656 C 211.675781 357.53125 210.886719 357.960938 210.027344 358.253906 C 209.167969 358.550781 208.28125 358.699219 207.371094 358.695312 L 167.628906 358.695312 C 166.71875 358.699219 165.835938 358.550781 164.976562 358.257812 C 164.113281 357.960938 163.324219 357.535156 162.609375 356.976562 C 161.890625 356.417969 161.285156 355.753906 160.789062 354.992188 C 160.292969 354.230469 159.9375 353.410156 159.714844 352.527344 L 152.457031 323.46875 C 152.140625 322.214844 151.5625 321.101562 150.71875 320.121094 C 149.875 319.144531 148.855469 318.40625 147.660156 317.910156 L 123.460938 307.886719 C 122.460938 307.476562 121.421875 307.269531 120.339844 307.265625 C 118.835938 307.261719 117.441406 307.652344 116.152344 308.429688 L 90.453125 323.832031 C 89.675781 324.304688 88.84375 324.632812 87.957031 324.824219 C 87.066406 325.011719 86.171875 325.050781 85.269531 324.941406 C 84.367188 324.832031 83.507812 324.574219 82.695312 324.175781 C 81.878906 323.773438 81.148438 323.253906 80.507812 322.609375 L 52.382812 294.496094 C 51.742188 293.855469 51.222656 293.125 50.820312 292.308594 C 50.421875 291.492188 50.167969 290.632812 50.058594 289.730469 C 49.945312 288.828125 49.984375 287.929688 50.171875 287.042969 C 50.363281 286.152344 50.691406 285.316406 51.15625 284.539062 L 66.570312 258.863281 C 67.234375 257.753906 67.613281 256.558594 67.707031 255.269531 C 67.804688 253.980469 67.605469 252.742188 67.113281 251.546875 L 57.082031 227.339844 C 56.585938 226.144531 55.851562 225.125 54.871094 224.285156 C 53.890625 223.441406 52.777344 222.863281 51.523438 222.554688 L 22.480469 215.292969 C 21.597656 215.074219 20.773438 214.714844 20.011719 214.21875 C 19.25 213.722656 18.589844 213.117188 18.027344 212.398438 C 17.46875 211.683594 17.042969 210.894531 16.746094 210.03125 C 16.449219 209.171875 16.304688 208.289062 16.304688 207.378906 L 16.304688 167.621094 C 16.304688 166.710938 16.453125 165.828125 16.746094 164.96875 C 17.042969 164.105469 17.46875 163.316406 18.03125 162.601562 C 18.589844 161.882812 19.25 161.277344 20.015625 160.78125 C 20.777344 160.285156 21.597656 159.929688 22.480469 159.707031 L 51.523438 152.445312 C 52.773438 152.136719 53.890625 151.558594 54.871094 150.714844 C 55.847656 149.871094 56.585938 148.855469 57.078125 147.660156 L 67.109375 123.453125 C 67.601562 122.257812 67.800781 121.019531 67.707031 119.730469 C 67.609375 118.441406 67.234375 117.246094 66.570312 116.136719 L 51.15625 90.46875 C 50.691406 89.691406 50.359375 88.855469 50.171875 87.964844 C 49.980469 87.074219 49.941406 86.179688 50.054688 85.273438 C 50.164062 84.371094 50.421875 83.511719 50.820312 82.695312 C 51.21875 81.875 51.742188 81.144531 52.382812 80.503906 L 80.503906 52.390625 C 81.144531 51.746094 81.875 51.226562 82.691406 50.824219 C 83.511719 50.425781 84.371094 50.171875 85.273438 50.058594 C 86.179688 49.949219 87.074219 49.988281 87.964844 50.175781 C 88.855469 50.367188 89.691406 50.695312 90.46875 51.167969 L 116.152344 66.570312 C 117.257812 67.234375 118.453125 67.617188 119.742188 67.710938 C 121.03125 67.808594 122.269531 67.609375 123.460938 67.113281 L 147.660156 57.089844 C 148.855469 56.59375 149.875 55.855469 150.71875 54.878906 C 151.5625 53.898438 152.140625 52.785156 152.457031 51.53125 L 159.714844 22.480469 C 159.933594 21.597656 160.292969 20.777344 160.789062 20.011719 C 161.28125 19.25 161.890625 18.585938 162.605469 18.027344 C 163.324219 17.46875 164.113281 17.039062 164.972656 16.746094 C 165.835938 16.449219 166.71875 16.300781 167.628906 16.304688 L 207.371094 16.304688 C 208.28125 16.300781 209.164062 16.449219 210.027344 16.742188 C 210.886719 17.039062 211.675781 17.464844 212.390625 18.023438 C 213.109375 18.585938 213.714844 19.246094 214.210938 20.007812 C 214.707031 20.769531 215.0625 21.589844 215.285156 22.472656 L 222.542969 51.53125 C 222.859375 52.785156 223.4375 53.898438 224.28125 54.878906 C 225.125 55.855469 226.144531 56.59375 227.339844 57.089844 L 251.539062 67.113281 C 252.730469 67.609375 253.96875 67.808594 255.257812 67.710938 C 256.546875 67.617188 257.742188 67.234375 258.847656 66.570312 L 284.546875 51.167969 C 285.324219 50.699219 286.15625 50.367188 287.042969 50.179688 C 287.933594 49.992188 288.828125 49.953125 289.730469 50.0625 C 290.632812 50.171875 291.488281 50.429688 292.304688 50.828125 C 293.121094 51.226562 293.851562 51.75 294.492188 52.390625 L 322.609375 80.503906 C 323.253906 81.144531 323.773438 81.875 324.171875 82.691406 C 324.570312 83.507812 324.824219 84.367188 324.9375 85.269531 C 325.046875 86.171875 325.007812 87.070312 324.820312 87.957031 C 324.632812 88.847656 324.304688 89.683594 323.835938 90.460938 L 308.429688 116.136719 C 307.765625 117.246094 307.386719 118.441406 307.292969 119.730469 C 307.195312 121.019531 307.394531 122.257812 307.886719 123.453125 L 317.917969 147.660156 C 318.414062 148.855469 319.148438 149.875 320.128906 150.714844 C 321.109375 151.558594 322.222656 152.136719 323.476562 152.445312 L 352.519531 159.707031 C 353.402344 159.925781 354.226562 160.285156 354.988281 160.78125 C 355.75 161.277344 356.414062 161.882812 356.972656 162.597656 C 357.53125 163.316406 357.960938 164.105469 358.257812 164.964844 C 358.550781 165.824219 358.699219 166.710938 358.699219 167.621094 Z M 358.695312 207.378906 " fill-opacity="1" fill-rule="nonzero"/><path fill="#e8eef1" d="M 187.5 97.824219 C 186.03125 97.824219 184.566406 97.863281 183.101562 97.933594 C 181.632812 98.007812 180.171875 98.113281 178.710938 98.257812 C 177.25 98.402344 175.792969 98.582031 174.34375 98.796875 C 172.890625 99.011719 171.445312 99.261719 170.003906 99.550781 C 168.566406 99.835938 167.132812 100.15625 165.710938 100.511719 C 164.289062 100.871094 162.875 101.261719 161.46875 101.6875 C 160.066406 102.113281 158.671875 102.574219 157.289062 103.066406 C 155.90625 103.5625 154.539062 104.089844 153.183594 104.652344 C 151.828125 105.214844 150.484375 105.808594 149.160156 106.4375 C 147.832031 107.0625 146.523438 107.722656 145.226562 108.414062 C 143.933594 109.105469 142.65625 109.828125 141.398438 110.585938 C 140.140625 111.339844 138.898438 112.125 137.679688 112.9375 C 136.460938 113.753906 135.261719 114.597656 134.082031 115.472656 C 132.902344 116.347656 131.746094 117.25 130.613281 118.179688 C 129.476562 119.113281 128.367188 120.070312 127.277344 121.054688 C 126.191406 122.042969 125.128906 123.054688 124.089844 124.089844 C 123.054688 125.128906 122.042969 126.191406 121.054688 127.277344 C 120.070312 128.367188 119.113281 129.476562 118.179688 130.613281 C 117.25 131.746094 116.347656 132.902344 115.472656 134.082031 C 114.597656 135.261719 113.753906 136.460938 112.9375 137.679688 C 112.125 138.898438 111.339844 140.140625 110.585938 141.398438 C 109.828125 142.65625 109.105469 143.933594 108.414062 145.226562 C 107.722656 146.523438 107.0625 147.832031 106.4375 149.160156 C 105.808594 150.484375 105.214844 151.828125 104.652344 153.183594 C 104.089844 154.539062 103.5625 155.90625 103.066406 157.289062 C 102.574219 158.671875 102.113281 160.066406 101.6875 161.46875 C 101.261719 162.875 100.871094 164.289062 100.511719 165.710938 C 100.15625 167.132812 99.835938 168.566406 99.550781 170.003906 C 99.261719 171.445312 99.011719 172.890625 98.796875 174.34375 C 98.582031 175.792969 98.402344 177.25 98.257812 178.710938 C 98.113281 180.171875 98.007812 181.632812 97.933594 183.101562 C 97.863281 184.566406 97.824219 186.03125 97.824219 187.5 C 97.824219 188.96875 97.863281 190.433594 97.933594 191.898438 C 98.007812 193.367188 98.113281 194.828125 98.257812 196.289062 C 98.402344 197.75 98.582031 199.207031 98.796875 200.65625 C 99.011719 202.109375 99.261719 203.554688 99.550781 204.996094 C 99.835938 206.433594 100.15625 207.867188 100.511719 209.289062 C 100.871094 210.710938 101.261719 212.125 101.6875 213.53125 C 102.113281 214.933594 102.574219 216.328125 103.066406 217.710938 C 103.5625 219.09375 104.089844 220.460938 104.652344 221.816406 C 105.214844 223.171875 105.808594 224.515625 106.4375 225.839844 C 107.0625 227.167969 107.722656 228.476562 108.414062 229.773438 C 109.105469 231.066406 109.828125 232.34375 110.585938 233.601562 C 111.339844 234.859375 112.125 236.101562 112.9375 237.320312 C 113.753906 238.539062 114.597656 239.738281 115.472656 240.917969 C 116.347656 242.097656 117.25 243.253906 118.179688 244.386719 C 119.113281 245.523438 120.070312 246.632812 121.054688 247.722656 C 122.042969 248.808594 123.054688 249.871094 124.089844 250.910156 C 125.128906 251.945312 126.191406 252.957031 127.277344 253.945312 C 128.367188 254.929688 129.476562 255.886719 130.613281 256.820312 C 131.746094 257.75 132.902344 258.652344 134.082031 259.527344 C 135.261719 260.402344 136.460938 261.246094 137.679688 262.0625 C 138.898438 262.875 140.140625 263.660156 141.398438 264.414062 C 142.65625 265.171875 143.933594 265.894531 145.226562 266.585938 C 146.523438 267.277344 147.832031 267.9375 149.160156 268.5625 C 150.484375 269.191406 151.828125 269.785156 153.183594 270.347656 C 154.539062 270.910156 155.90625 271.4375 157.289062 271.933594 C 158.671875 272.425781 160.066406 272.886719 161.46875 273.3125 C 162.875 273.738281 164.289062 274.128906 165.710938 274.488281 C 167.132812 274.84375 168.566406 275.164062 170.003906 275.449219 C 171.445312 275.738281 172.890625 275.988281 174.34375 276.203125 C 175.792969 276.417969 177.25 276.597656 178.710938 276.742188 C 180.171875 276.886719 181.632812 276.992188 183.101562 277.066406 C 184.566406 277.136719 186.03125 277.175781 187.5 277.175781 C 188.96875 277.175781 190.433594 277.136719 191.898438 277.066406 C 193.367188 276.992188 194.828125 276.886719 196.289062 276.742188 C 197.75 276.597656 199.207031 276.417969 200.65625 276.203125 C 202.109375 275.988281 203.554688 275.738281 204.996094 275.449219 C 206.433594 275.164062 207.867188 274.84375 209.289062 274.488281 C 210.710938 274.128906 212.125 273.738281 213.53125 273.3125 C 214.933594 272.886719 216.328125 272.425781 217.710938 271.933594 C 219.09375 271.4375 220.460938 270.910156 221.816406 270.347656 C 223.171875 269.785156 224.515625 269.191406 225.839844 268.5625 C 227.167969 267.9375 228.476562 267.277344 229.773438 266.585938 C 231.066406 265.894531 232.34375 265.171875 233.601562 264.414062 C 234.859375 263.660156 236.101562 262.875 237.320312 262.0625 C 238.539062 261.246094 239.738281 260.402344 240.917969 259.527344 C 242.097656 258.652344 243.253906 257.75 244.386719 256.820312 C 245.523438 255.886719 246.632812 254.929688 247.722656 253.945312 C 248.808594 252.957031 249.871094 251.945312 250.910156 250.910156 C 251.945312 249.871094 252.957031 248.808594 253.945312 247.722656 C 254.929688 246.632812 255.886719 245.523438 256.820312 244.386719 C 257.75 243.253906 258.652344 242.097656 259.527344 240.917969 C 260.402344 239.738281 261.246094 238.539062 262.0625 237.320312 C 262.875 236.101562 263.660156 234.859375 264.414062 233.601562 C 265.171875 232.34375 265.894531 231.066406 266.585938 229.773438 C 267.277344 228.476562 267.9375 227.167969 268.5625 225.839844 C 269.191406 224.515625 269.785156 223.171875 270.347656 221.816406 C 270.910156 220.460938 271.4375 219.09375 271.933594 217.710938 C 272.425781 216.328125 272.886719 214.933594 273.3125 213.53125 C 273.738281 212.125 274.128906 210.710938 274.488281 209.289062 C 274.84375 207.867188 275.164062 206.433594 275.449219 204.996094 C 275.738281 203.554688 275.988281 202.109375 276.203125 200.65625 C 276.417969 199.207031 276.597656 197.75 276.742188 196.289062 C 276.886719 194.828125 276.992188 193.367188 277.066406 191.898438 C 277.136719 190.433594 277.175781 188.96875 277.175781 187.5 C 277.171875 186.03125 277.132812 184.566406 277.0625 183.101562 C 276.988281 181.636719 276.878906 180.171875 276.730469 178.714844 C 276.585938 177.253906 276.40625 175.796875 276.1875 174.347656 C 275.972656 172.894531 275.71875 171.453125 275.433594 170.011719 C 275.144531 168.574219 274.824219 167.144531 274.464844 165.71875 C 274.109375 164.296875 273.714844 162.882812 273.289062 161.480469 C 272.863281 160.078125 272.402344 158.683594 271.90625 157.304688 C 271.410156 155.921875 270.882812 154.554688 270.320312 153.199219 C 269.757812 151.84375 269.160156 150.503906 268.535156 149.179688 C 267.90625 147.851562 267.246094 146.542969 266.554688 145.25 C 265.863281 143.957031 265.136719 142.679688 264.382812 141.421875 C 263.628906 140.164062 262.84375 138.925781 262.027344 137.707031 C 261.210938 136.484375 260.367188 135.285156 259.492188 134.109375 C 258.621094 132.929688 257.71875 131.773438 256.785156 130.640625 C 255.855469 129.507812 254.898438 128.394531 253.910156 127.308594 C 252.925781 126.222656 251.914062 125.160156 250.878906 124.121094 C 249.839844 123.085938 248.777344 122.074219 247.691406 121.089844 C 246.605469 120.101562 245.492188 119.144531 244.359375 118.214844 C 243.226562 117.28125 242.070312 116.378906 240.890625 115.507812 C 239.714844 114.632812 238.515625 113.789062 237.292969 112.972656 C 236.074219 112.15625 234.835938 111.371094 233.578125 110.617188 C 232.320312 109.863281 231.042969 109.136719 229.75 108.445312 C 228.457031 107.753906 227.148438 107.09375 225.820312 106.464844 C 224.496094 105.839844 223.15625 105.242188 221.800781 104.679688 C 220.445312 104.117188 219.078125 103.589844 217.695312 103.09375 C 216.316406 102.597656 214.921875 102.136719 213.519531 101.710938 C 212.117188 101.285156 210.703125 100.890625 209.28125 100.535156 C 207.855469 100.175781 206.425781 99.855469 204.988281 99.566406 C 203.546875 99.28125 202.105469 99.027344 200.652344 98.8125 C 199.203125 98.59375 197.746094 98.414062 196.285156 98.269531 C 194.828125 98.121094 193.363281 98.011719 191.898438 97.9375 C 190.433594 97.867188 188.96875 97.828125 187.5 97.824219 Z M 187.5 260.871094 C 186.300781 260.871094 185.097656 260.839844 183.898438 260.78125 C 182.699219 260.722656 181.503906 260.632812 180.308594 260.515625 C 179.113281 260.398438 177.921875 260.25 176.734375 260.074219 C 175.546875 259.898438 174.363281 259.695312 173.1875 259.460938 C 172.007812 259.226562 170.835938 258.960938 169.671875 258.671875 C 168.507812 258.378906 167.351562 258.058594 166.203125 257.710938 C 165.054688 257.363281 163.914062 256.984375 162.78125 256.582031 C 161.652344 256.175781 160.53125 255.742188 159.421875 255.285156 C 158.3125 254.824219 157.214844 254.339844 156.128906 253.824219 C 155.046875 253.3125 153.972656 252.773438 152.914062 252.207031 C 151.855469 251.640625 150.808594 251.046875 149.78125 250.429688 C 148.75 249.8125 147.738281 249.171875 146.738281 248.503906 C 145.738281 247.835938 144.757812 247.144531 143.792969 246.429688 C 142.828125 245.714844 141.882812 244.976562 140.953125 244.214844 C 140.027344 243.453125 139.117188 242.667969 138.226562 241.863281 C 137.339844 241.058594 136.46875 240.230469 135.621094 239.378906 C 134.769531 238.53125 133.941406 237.660156 133.136719 236.773438 C 132.332031 235.882812 131.546875 234.972656 130.785156 234.046875 C 130.023438 233.117188 129.285156 232.171875 128.570312 231.207031 C 127.855469 230.242188 127.164062 229.261719 126.496094 228.261719 C 125.828125 227.261719 125.1875 226.25 124.570312 225.21875 C 123.953125 224.191406 123.359375 223.144531 122.792969 222.085938 C 122.226562 221.027344 121.6875 219.953125 121.175781 218.871094 C 120.660156 217.785156 120.175781 216.6875 119.714844 215.578125 C 119.253906 214.46875 118.824219 213.347656 118.417969 212.21875 C 118.015625 211.085938 117.636719 209.945312 117.289062 208.796875 C 116.941406 207.648438 116.621094 206.492188 116.328125 205.328125 C 116.039062 204.164062 115.773438 202.992188 115.539062 201.8125 C 115.304688 200.636719 115.101562 199.453125 114.925781 198.265625 C 114.75 197.078125 114.601562 195.886719 114.484375 194.691406 C 114.367188 193.496094 114.277344 192.300781 114.21875 191.101562 C 114.160156 189.902344 114.128906 188.699219 114.128906 187.5 C 114.128906 186.300781 114.160156 185.097656 114.21875 183.898438 C 114.277344 182.699219 114.367188 181.503906 114.484375 180.308594 C 114.601562 179.113281 114.75 177.921875 114.925781 176.734375 C 115.101562 175.546875 115.304688 174.363281 115.539062 173.1875 C 115.773438 172.007812 116.039062 170.835938 116.328125 169.671875 C 116.621094 168.507812 116.941406 167.351562 117.289062 166.203125 C 117.636719 165.054688 118.015625 163.914062 118.417969 162.78125 C 118.824219 161.652344 119.253906 160.53125 119.714844 159.421875 C 120.175781 158.3125 120.660156 157.214844 121.175781 156.128906 C 121.6875 155.046875 122.226562 153.972656 122.792969 152.914062 C 123.359375 151.855469 123.953125 150.808594 124.570312 149.78125 C 125.1875 148.75 125.828125 147.738281 126.496094 146.738281 C 127.164062 145.738281 127.855469 144.757812 128.570312 143.792969 C 129.285156 142.828125 130.023438 141.882812 130.785156 140.953125 C 131.546875 140.027344 132.332031 139.117188 133.136719 138.226562 C 133.941406 137.339844 134.769531 136.46875 135.621094 135.621094 C 136.46875 134.769531 137.339844 133.941406 138.226562 133.136719 C 139.117188 132.332031 140.027344 131.546875 140.953125 130.785156 C 141.882812 130.023438 142.828125 129.285156 143.792969 128.570312 C 144.757812 127.855469 145.738281 127.164062 146.738281 126.496094 C 147.738281 125.828125 148.75 125.1875 149.78125 124.570312 C 150.808594 123.953125 151.855469 123.359375 152.914062 122.792969 C 153.972656 122.226562 155.046875 121.6875 156.128906 121.175781 C 157.214844 120.660156 158.3125 120.175781 159.421875 119.714844 C 160.53125 119.253906 161.652344 118.824219 162.78125 118.417969 C 163.914062 118.015625 165.054688 117.636719 166.203125 117.289062 C 167.351562 116.941406 168.507812 116.621094 169.671875 116.328125 C 170.835938 116.039062 172.007812 115.773438 173.1875 115.539062 C 174.363281 115.304688 175.546875 115.101562 176.734375 114.925781 C 177.921875 114.75 179.113281 114.601562 180.308594 114.484375 C 181.503906 114.367188 182.699219 114.277344 183.898438 114.21875 C 185.097656 114.160156 186.300781 114.128906 187.5 114.128906 C 188.699219 114.128906 189.902344 114.160156 191.101562 114.21875 C 192.300781 114.277344 193.496094 114.367188 194.691406 114.484375 C 195.886719 114.601562 197.078125 114.75 198.265625 114.925781 C 199.453125 115.101562 200.636719 115.304688 201.8125 115.539062 C 202.992188 115.773438 204.164062 116.039062 205.328125 116.328125 C 206.492188 116.621094 207.648438 116.941406 208.796875 117.289062 C 209.945312 117.636719 211.085938 118.015625 212.21875 118.417969 C 213.347656 118.824219 214.46875 119.253906 215.578125 119.714844 C 216.6875 120.175781 217.785156 120.660156 218.871094 121.175781 C 219.953125 121.6875 221.027344 122.226562 222.085938 122.792969 C 223.144531 123.359375 224.191406 123.953125 225.21875 124.570312 C 226.25 125.1875 227.261719 125.828125 228.261719 126.496094 C 229.261719 127.164062 230.242188 127.855469 231.207031 128.570312 C 232.171875 129.285156 233.117188 130.023438 234.046875 130.785156 C 234.972656 131.546875 235.882812 132.332031 236.773438 133.136719 C 237.660156 133.941406 238.53125 134.769531 239.378906 135.621094 C 240.230469 136.46875 241.058594 137.339844 241.863281 138.226562 C 242.667969 139.117188 243.453125 140.027344 244.214844 140.953125 C 244.976562 141.882812 245.714844 142.828125 246.429688 143.792969 C 247.144531 144.757812 247.835938 145.738281 248.503906 146.738281 C 249.171875 147.738281 249.8125 148.75 250.429688 149.78125 C 251.046875 150.808594 251.640625 151.855469 252.207031 152.914062 C 252.773438 153.972656 253.3125 155.046875 253.824219 156.128906 C 254.339844 157.214844 254.824219 158.3125 255.285156 159.421875 C 255.742188 160.53125 256.175781 161.652344 256.582031 162.78125 C 256.984375 163.914062 257.363281 165.054688 257.710938 166.203125 C 258.058594 167.351562 258.378906 168.507812 258.671875 169.671875 C 258.960938 170.835938 259.226562 172.007812 259.460938 173.1875 C 259.695312 174.363281 259.898438 175.546875 260.074219 176.734375 C 260.25 177.921875 260.398438 179.113281 260.515625 180.308594 C 260.632812 181.503906 260.722656 182.699219 260.78125 183.898438 C 260.839844 185.097656 260.871094 186.300781 260.871094 187.5 C 260.867188 188.699219 260.835938 189.898438 260.777344 191.097656 C 260.71875 192.296875 260.628906 193.496094 260.507812 194.6875 C 260.390625 195.882812 260.242188 197.074219 260.066406 198.261719 C 259.886719 199.449219 259.679688 200.632812 259.445312 201.808594 C 259.210938 202.984375 258.949219 204.15625 258.65625 205.320312 C 258.363281 206.484375 258.042969 207.640625 257.691406 208.789062 C 257.34375 209.9375 256.964844 211.078125 256.558594 212.207031 C 256.15625 213.335938 255.722656 214.457031 255.261719 215.566406 C 254.804688 216.671875 254.316406 217.769531 253.800781 218.855469 C 253.289062 219.941406 252.75 221.011719 252.183594 222.070312 C 251.617188 223.128906 251.023438 224.171875 250.40625 225.203125 C 249.789062 226.230469 249.148438 227.246094 248.480469 228.242188 C 247.8125 229.242188 247.121094 230.222656 246.40625 231.1875 C 245.691406 232.148438 244.953125 233.09375 244.191406 234.023438 C 243.429688 234.949219 242.644531 235.859375 241.839844 236.75 C 241.03125 237.636719 240.203125 238.507812 239.355469 239.355469 C 238.507812 240.203125 237.636719 241.03125 236.75 241.839844 C 235.859375 242.644531 234.949219 243.429688 234.023438 244.191406 C 233.09375 244.953125 232.148438 245.691406 231.1875 246.40625 C 230.222656 247.121094 229.242188 247.8125 228.242188 248.480469 C 227.246094 249.148438 226.230469 249.789062 225.203125 250.40625 C 224.171875 251.023438 223.128906 251.617188 222.070312 252.183594 C 221.011719 252.75 219.941406 253.289062 218.855469 253.800781 C 217.769531 254.316406 216.671875 254.804688 215.566406 255.261719 C 214.457031 255.722656 213.335938 256.15625 212.207031 256.558594 C 211.078125 256.964844 209.9375 257.34375 208.789062 257.691406 C 207.640625 258.042969 206.484375 258.363281 205.320312 258.65625 C 204.15625 258.949219 202.984375 259.210938 201.808594 259.445312 C 200.632812 259.679688 199.449219 259.886719 198.261719 260.066406 C 197.074219 260.242188 195.882812 260.390625 194.6875 260.507812 C 193.496094 260.628906 192.296875 260.71875 191.097656 260.777344 C 189.898438 260.835938 188.699219 260.867188 187.5 260.871094 Z M 187.5 260.871094 " fill-opacity="1" fill-rule="nonzero"/></svg>