<svg xmlns="http://www.w3.org/2000/svg" xmlns:xlink="http://www.w3.org/1999/xlink" width="500" zoomAndPan="magnify" viewBox="0 0 375 374.999991" height="500" preserveAspectRatio="xMidYMid meet" version="1.0"><path fill="#ffffff" d="M 375 222.496094 L 375 152.496094 L 338.640625 146.519531 C 335.128906 133.558594 330.019531 121.261719 323.316406 109.625 L 344.824219 79.648438 L 295.339844 30.175781 L 265.363281 51.683594 C 253.726562 44.984375 241.429688 39.875 228.46875 36.359375 L 222.496094 0 L 152.496094 0 L 146.519531 36.359375 C 133.558594 39.875 121.261719 44.984375 109.625 51.683594 L 79.648438 30.175781 L 30.175781 79.660156 L 51.683594 109.636719 C 44.980469 121.273438 39.871094 133.570312 36.359375 146.53125 L 0 152.496094 L 0 222.496094 L 36.359375 228.472656 C 39.875 241.433594 44.980469 253.726562 51.683594 265.363281 L 30.175781 295.339844 L 79.660156 344.828125 L 109.636719 323.316406 C 121.273438 330.019531 133.570312 335.128906 146.53125 338.644531 L 152.496094 375 L 222.496094 375 L 228.46875 338.644531 C 241.429688 335.128906 253.726562 330.019531 265.363281 323.316406 L 295.339844 344.828125 L 344.824219 295.339844 L 323.316406 265.363281 C 330.019531 253.730469 335.128906 241.433594 338.640625 228.472656 Z M 288.519531 187.5 C 288.519531 243.195312 243.195312 288.542969 187.5 288.542969 C 131.804688 288.542969 86.480469 243.195312 86.480469 187.5 C 86.480469 131.804688 131.796875 86.480469 187.5 86.480469 C 243.203125 86.480469 288.519531 131.796875 288.519531 187.5 Z M 288.519531 187.5 " fill-opacity="1" fill-rule="nonzero"/></svg>